<svg width="153" height="148" viewBox="0 0 153 148" fill="none" xmlns="http://www.w3.org/2000/svg">
<g filter="url(#filter0_f_55_98)">
<path d="M81.5648 106.801C81.7295 106 82.7334 105.725 83.2838 106.329L99.9558 124.644C100.46 125.198 100.199 126.089 99.4752 126.283L77.8453 132.079C77.1269 132.271 76.4572 131.64 76.607 130.911L81.5648 106.801Z" fill="#F9C15C"/>
<path d="M144.097 67.3849C144.804 67.1954 145.075 66.3353 144.603 65.7751L130.342 48.8251C130.092 48.5281 129.693 48.4026 129.318 48.503L102.426 55.7086C102.073 55.8033 101.696 55.6974 101.443 55.4324L57.2322 9.01663C56.6641 8.4202 55.6589 8.7279 55.522 9.54014L50.1223 41.579C50.0699 41.8897 50.167 42.2069 50.3844 42.435L68.9398 61.9111C69.4634 62.4607 69.2079 63.3703 68.4746 63.5668L26.3618 74.8509C26.3271 74.8602 26.3065 74.8959 26.3158 74.9305V74.9305C26.3252 74.9655 26.3042 75.0013 26.2692 75.0103L14.576 78.0156C14.2039 78.1112 13.9194 78.4117 13.8443 78.7885L8.91626 103.497C8.77129 104.224 9.43982 104.851 10.1558 104.659L34.7533 98.0679C35.5083 97.8656 36.1931 98.5688 35.9709 99.3181L31.5019 114.388C31.4076 114.706 31.477 115.05 31.6871 115.306L50.9993 138.878C51.5236 139.518 52.5539 139.281 52.7456 138.476L64.1123 90.7441C64.1974 90.3868 64.4715 90.1049 64.8263 90.0099L88.8577 83.5707C89.2111 83.476 89.5881 83.5819 89.8405 83.8468L122.959 118.608C123.536 119.214 124.557 118.886 124.674 118.058L128.993 87.2767C129.037 86.9685 128.934 86.6578 128.716 86.436L118.286 75.8469C117.749 75.3008 118 74.3776 118.74 74.1792L144.097 67.3849Z" fill="#F9C15C"/>
</g>
<defs>
<filter id="filter0_f_55_98" x="0.896362" y="0.705566" width="151.943" height="146.54" filterUnits="userSpaceOnUse" color-interpolation-filters="sRGB">
<feFlood flood-opacity="0" result="BackgroundImageFix"/>
<feBlend mode="normal" in="SourceGraphic" in2="BackgroundImageFix" result="shape"/>
<feGaussianBlur stdDeviation="4" result="effect1_foregroundBlur_55_98"/>
</filter>
</defs>
</svg>
