<svg width="238" height="230" viewBox="0 0 238 230" fill="none" xmlns="http://www.w3.org/2000/svg">
<g opacity="0.75" filter="url(#filter0_f_55_99)">
<path d="M109.592 162.457C110.135 161.839 111.151 162.105 111.322 162.91L119.143 199.785C119.298 200.515 118.627 201.151 117.906 200.958L85.3609 192.238C84.6449 192.046 84.3792 191.169 84.8683 190.612L109.592 162.457Z" fill="#FFB837"/>
<path d="M216.151 158.716C216.856 158.905 217.52 158.3 217.396 157.581L211.753 124.774C211.687 124.39 211.403 124.079 211.026 123.978L171.798 113.467C171.442 113.371 171.167 113.088 171.083 112.73L149.416 20.7748C149.226 19.9679 148.193 19.7294 147.668 20.3714L117.004 57.8974C116.807 58.1382 116.734 58.4569 116.805 58.7596L126.024 97.8662C126.198 98.6025 125.523 99.2574 124.792 99.0616L63.4393 82.6221C63.3886 82.6086 63.3366 82.6386 63.323 82.6893V82.6893C63.3093 82.7403 63.2567 82.7703 63.2058 82.7561L46.2036 78.0107C45.8315 77.9068 45.4327 78.0266 45.1795 78.3184L20.4528 106.813C19.9687 107.371 20.2357 108.243 20.9493 108.434L57.8258 118.315C58.578 118.516 58.8213 119.463 58.2598 120.002L40.9921 136.591C40.7561 136.818 40.646 137.146 40.6973 137.469L47.8356 182.452C47.9661 183.274 48.9856 183.586 49.554 182.978L99.11 129.925C99.3622 129.655 99.7427 129.547 100.1 129.642L135.194 139.046C135.549 139.141 135.824 139.424 135.908 139.782L152.219 208.966C152.412 209.785 153.469 210.014 153.983 209.348L182.384 172.59C182.572 172.347 182.638 172.031 182.562 171.733L177 149.766C176.813 149.026 177.491 148.357 178.229 148.555L216.151 158.716Z" fill="#FFB837"/>
</g>
<defs>
<filter id="filter0_f_55_99" x="0.207458" y="0.00341797" width="237.203" height="229.733" filterUnits="userSpaceOnUse" color-interpolation-filters="sRGB">
<feFlood flood-opacity="0" result="BackgroundImageFix"/>
<feBlend mode="normal" in="SourceGraphic" in2="BackgroundImageFix" result="shape"/>
<feGaussianBlur stdDeviation="10" result="effect1_foregroundBlur_55_99"/>
</filter>
</defs>
</svg>
