<svg width="493" height="606" viewBox="0 0 493 606" fill="none" xmlns="http://www.w3.org/2000/svg">
<path d="M441.411 306.184L492.312 414.202C493.562 416.855 491.626 419.907 488.693 419.907H345.471C342.4 419.907 340.474 423.224 341.997 425.891L382.197 496.268C382.819 497.356 382.894 498.673 382.402 499.825L337 606H283.516L186.242 429.012C185.539 427.733 184.196 426.939 182.737 426.939H49.4407C47.9757 426.939 46.628 427.74 45.9275 429.026L-79.2396 658.96C-80.8169 661.857 -85.0264 661.707 -86.3933 658.705L-154.217 509.726C-154.77 508.512 -154.681 507.102 -153.98 505.967L-108.947 433.04C-107.301 430.376 -109.218 426.939 -112.35 426.939H-251.544C-254.514 426.939 -256.448 423.817 -255.126 421.158L-194.802 299.839C-194.119 298.467 -192.712 297.605 -191.179 297.621L-126.429 298.279C-126.239 298.281 -126.084 298.127 -126.084 297.937C-126.084 297.748 -125.931 297.595 -125.742 297.595H107.28C110.322 297.595 112.25 294.335 110.786 291.669L41.2564 165.099C40.6459 163.988 40.5985 162.652 41.1288 161.5L113.994 3.2099C115.368 0.226303 119.553 0.0780807 121.134 2.95703L285.261 301.814C285.963 303.094 287.307 303.889 288.767 303.889H437.793C439.341 303.889 440.751 304.783 441.411 306.184Z" fill="#F5F5F5"/>
<path d="M159.208 606L121.087 532.692C119.583 529.799 115.436 529.825 113.967 532.735L76.9901 606H159.208Z" fill="#F5F5F5"/>
</svg>
