<svg width="28" height="28" viewBox="0 0 28 28" fill="none" xmlns="http://www.w3.org/2000/svg">
<path fill-rule="evenodd" clip-rule="evenodd" d="M8.50405 1H19.4964C23.6244 1 27 4.36283 27 8.47102V19.529C27 23.6381 23.6244 27 19.4964 27H8.50405C4.3761 27 1 23.6381 1 19.529V8.47102C1 4.36283 4.37606 1 8.50405 1ZM13.93 6.98031C17.9413 6.98031 21.1965 10.2638 21.1965 14.31C21.1965 18.3567 17.9413 21.6397 13.93 21.6397C9.91763 21.6397 6.66296 18.3567 6.66296 14.31C6.66296 10.2638 9.91763 6.98031 13.93 6.98031ZM13.93 9.45597C16.5863 9.45597 18.7422 11.6301 18.7422 14.31C18.7422 16.9899 16.5863 19.1645 13.93 19.1645C11.2727 19.1645 9.11728 16.9899 9.11728 14.31C9.11728 11.6301 11.2727 9.45597 13.93 9.45597ZM20.9599 5.96442C21.6115 5.96442 22.1398 6.4973 22.1398 7.1541C22.1398 7.81139 21.6115 8.34427 20.9599 8.34427C20.3088 8.34427 19.7805 7.81139 19.7805 7.1541C19.7805 6.4973 20.3088 5.96442 20.9599 5.96442ZM9.40227 3.12382H18.5992C22.0525 3.12382 24.8768 5.95861 24.8768 9.42266V18.7459C24.8768 22.2099 22.0525 25.0442 18.5992 25.0442H9.40227C5.94894 25.0442 3.1242 22.2099 3.1242 18.7459V9.42257C3.1242 5.95861 5.94894 3.12382 9.40227 3.12382Z" fill="white" stroke="white" stroke-width="0.3"/>
</svg>
