<svg width="62" height="62" viewBox="0 0 62 62" fill="none" xmlns="http://www.w3.org/2000/svg">
<path d="M22.7145 29L28.2663 36.0661C28.6495 36.5539 29.3799 36.5787 29.7953 36.1179L41.5147 23.12M21.4589 6.74578L15.3309 6.73469C13.6146 6.73158 12.0876 7.82376 11.5359 9.44901L9.73503 14.7546C9.45804 15.5706 8.92491 16.2754 8.21501 16.764L3.50287 20.007C2.02348 21.0251 1.404 22.9044 1.98797 24.6027L3.74047 29.6993C4.0303 30.5422 4.0303 31.4578 3.74047 32.3007L1.98797 37.3973C1.404 39.0956 2.02348 40.9749 3.50286 41.993L8.21501 45.236C8.92491 45.7246 9.45804 46.4294 9.73503 47.2454L11.5359 52.551C12.0876 54.1762 13.6146 55.2684 15.3309 55.2653L21.4589 55.2542C22.2763 55.2527 23.0746 55.5017 23.7462 55.9677L28.7199 59.4182C30.0912 60.3695 31.9089 60.3695 33.2801 59.4182L38.2538 55.9677C38.9254 55.5017 39.7237 55.2527 40.5411 55.2542L46.6691 55.2653C48.3854 55.2684 49.9124 54.1762 50.4641 52.551L52.265 47.2454C52.542 46.4294 53.0751 45.7246 53.785 45.236L58.4971 41.993C59.9765 40.9749 60.596 39.0956 60.012 37.3973L58.2595 32.3007C57.9697 31.4578 57.9697 30.5422 58.2595 29.6993L60.012 24.6027C60.596 22.9044 59.9765 21.0251 58.4971 20.007L53.785 16.764C53.0751 16.2754 52.542 15.5706 52.265 14.7546L50.4641 9.44901C49.9124 7.82376 48.3854 6.73158 46.6691 6.73469L40.5411 6.74578C39.7237 6.74726 38.9254 6.49827 38.2538 6.03233L33.2801 2.58179C31.9088 1.63052 30.0911 1.63052 28.7199 2.58179L23.7462 6.03234C23.0746 6.49828 22.2763 6.74726 21.4589 6.74578Z" stroke="#DDDDDD" stroke-width="3" stroke-linecap="round"/>
</svg>
