<svg width="48" height="48" viewBox="0 0 48 48" fill="none" xmlns="http://www.w3.org/2000/svg">
<path d="M47.988 48V47.998H48V30.3147C48 21.6639 46.1473 15 36.0865 15C31.2499 15 28.0042 17.668 26.6791 20.1973H26.5392V15.8076H17V47.998H26.9329V32.0585C26.9329 27.8617 27.7244 23.8035 32.8947 23.8035C37.9891 23.8035 38.065 28.593 38.065 32.3277V48H47.988Z" fill="#FFB837"/>
<path d="M1 16H11V48H1V16Z" fill="#FFB837"/>
<path d="M6 0C2.68772 0 0 2.67519 0 5.97203C0 9.26887 2.68772 12 6 12C9.31228 12 12 9.26887 12 5.97203C11.9979 2.67519 9.3102 0 6 0Z" fill="#FFB837"/>
</svg>
