<svg width="27" height="26" viewBox="0 0 27 26" fill="none" xmlns="http://www.w3.org/2000/svg">
<path d="M26.5268 26V25.9989H26.5333V16.4205C26.5333 11.7346 25.5298 8.125 20.0802 8.125C17.4603 8.125 15.7023 9.57015 14.9845 10.9402H14.9087V8.56246H9.74166V25.9989H15.122V17.365C15.122 15.0917 15.5507 12.8936 18.3513 12.8936C21.1108 12.8936 21.1519 15.4879 21.1519 17.5108V26H26.5268Z" fill="white"/>
<path d="M1.07499 8.66667H6.49166V26H1.07499V8.66667Z" fill="white"/>
<path d="M3.78332 0C1.98917 0 0.533325 1.44906 0.533325 3.23485C0.533325 5.02064 1.98917 6.5 3.78332 6.5C5.57748 6.5 7.03332 5.02064 7.03332 3.23485C7.0322 1.44906 5.57635 0 3.78332 0Z" fill="white"/>
</svg>
