<svg width="259" height="124" viewBox="0 0 259 124" fill="none" xmlns="http://www.w3.org/2000/svg">
<g opacity="0.55">
<path d="M38.8404 107.588C38.897 106.835 38.4568 103.144 38.1913 100.363L37.4692 98.3443C35.898 93.9947 29.3602 89.5932 22.2755 87.9275C19.9695 87.429 16.0531 86.5673 12.8847 85.7633C7.85205 99.6839 3.97171 112.977 2.16209 121.352C1.62984 123.815 0.344739 123.052 0.572328 121.794C2.75563 111.526 5.16123 102.766 11.3391 85.3876C10.0121 85.1045 8.87889 84.784 8.31229 84.6238C6.18754 84.0228 6.01596 80.684 13.6124 79.0813L14.8596 75.8056C23.3063 52.7956 34.2317 41.3106 36.0776 41.1562C37.9235 41.0019 39.1169 41.9851 39.1036 44.0108C39.1548 46.0241 38.3475 58.9258 38.241 75.1314C39.1181 75.1643 40.1368 75.2372 41.2054 75.5702C42.7115 76.0884 46.0634 76.4523 38.5778 76.8872L38.2549 76.9496C38.3041 89.0788 38.6298 92.5227 39.4478 99.5804C39.4207 99.788 39.5227 99.9706 39.4955 100.178C40.9522 104.28 40.9353 104.89 41.0328 105.748C41.1554 106.736 40.1278 108.014 39.6632 108.036C39.1986 108.058 38.7714 108.276 38.8404 107.588ZM15.4855 78.7193C23.2236 77.1566 35.6076 75.3705 36.9764 75.1735C37.025 57.9675 38.1009 45.4185 38.0056 44.223C37.9227 43.0926 37.8523 42.0272 36.6647 42.1218C35.4126 42.2289 22.6637 60.2705 16.4302 76.3113L15.4855 78.7193ZM22.5405 86.8648C31.2854 89.1538 35.6757 92.4866 37.7555 95.9961C37.3447 91.7594 36.9963 87.8479 36.9257 77.0041C29.8129 77.6367 20.3956 79.5239 14.7367 80.7523C14.2383 81.995 13.8045 83.2253 13.3707 84.4556L22.5405 86.8648ZM9.00447 83.3436L11.825 84.0799L12.8762 81.1792C8.41736 82.378 8.46281 83.3133 9.00447 83.3436Z" fill="#151513"/>
<path d="M46.7235 60.342C47.0003 45.7219 48.006 41.886 49.0394 41.6863C49.6207 41.574 50.0492 43.1096 50.0323 43.7199C49.9882 44.5376 49.4105 46.0655 48.9994 47.7634C48.9326 48.1135 48.4882 54.8757 48.3712 60.9003C48.122 69.3781 48.3916 77.4186 48.6131 81.0174C51.8206 77.835 53.6402 75.7974 55.0487 75.4578C56.2758 75.2207 56.6046 76.2362 56.8665 77.6017C57.1909 79.2924 57.2114 80.0977 58.374 79.8731C62.7659 79.0244 69.4474 73.3499 74.2616 69.1152C74.9618 68.5752 75.8344 69.2833 74.7841 70.0932C68.4278 75.3677 64.2176 79.9578 58.8693 81.0587C56.9962 81.4206 55.8425 80.2948 55.5307 78.6691C55.3561 77.7587 55.4126 77.006 55.0251 77.0809C54.3792 77.2057 51.3948 79.8055 49.2523 81.9054C48.8105 82.3955 48.3686 82.8855 47.9811 82.9603C47.5935 83.0352 47.1334 82.3823 47.0652 80.9793C46.8335 76.9778 46.5366 69.145 46.7235 60.342Z" fill="#151513"/>
<path d="M94.9053 76.5905C93.226 76.915 93.0433 75.2644 92.9702 70.6927C92.9117 65.8485 92.9286 65.2383 92.5807 65.1706C92.0787 64.9979 90.2547 67.7107 88.9746 70.1161C87.3942 73.0515 86.5501 73.889 85.7501 73.9087C85.0147 73.9159 84.6713 73.173 84.6378 68.4589C84.6622 64.7451 84.3922 62.6393 83.8131 62.414C83.0278 62.1611 82.3129 62.9736 79.8582 69.3824C77.2179 76.569 76.9395 79.6575 75.9061 79.8572C75.3248 79.9695 75.0313 79.4867 74.9858 78.5514C74.8935 74.9276 74.4159 71.041 74.2061 69.5979C74.0212 68.2849 75.7651 67.9479 75.9103 69.4035C76.0035 70.9366 75.9438 74.1177 75.9702 76.0008C76.0281 77.0012 76.9376 74.0605 78.725 69.0619C80.9712 62.9631 82.2095 61.0379 83.6803 61.0234C85.6282 61.0516 85.7 63.8702 85.7482 68.3117L85.7782 71.6104C85.784 72.6883 86.2214 72.8735 86.8615 71.6708C87.1741 71.2058 87.5911 70.5857 87.9309 69.9131C89.7594 66.5251 91.6355 63.7348 92.6689 63.5351C93.3794 63.3978 93.9041 64.0382 94.0413 64.7535C94.1785 65.4688 94.2819 67.4046 94.2098 70.5206C94.1186 74.5845 94.3703 75.5474 94.9516 75.4351C97.9872 74.8485 105.371 68.2964 112.951 61.3693C113.236 61.1118 114.538 61.2648 113.63 62.1148C108.436 67.1647 99.1681 75.7668 94.9053 76.5905Z" fill="#151513"/>
<path d="M129.346 54.8294C129.344 55.167 129.249 57.8154 129.516 60.2589C129.797 62.7673 130.34 64.5507 130.533 64.5132C130.779 64.3983 130.184 62.6924 131.546 59.6644C132.855 56.7138 134.75 55.0665 136.042 54.8168C137.075 54.6172 138.154 55.3528 140.05 55.4585C141.339 55.5465 142.812 55.1945 143.783 54.6696C144.806 54.0673 144.806 54.0673 144.829 54.535C144.879 54.7951 142.21 56.5922 139.847 56.8465C138.001 57.0008 137.258 56.2678 136.612 56.3926C135.255 56.6547 133.415 57.887 132.262 60.605C131.201 63.103 131.379 65.4288 131.293 66.7268C131.361 68.1298 131.332 68.675 131.151 68.7774C130.892 68.8274 130.301 68.537 130.263 68.342C130.084 68.1068 129.868 67.6766 129.35 66.0233C128.642 63.7322 127.834 57.0771 127.756 55.2715C127.725 54.0635 127.134 53.7732 126.931 55.1611C126.234 59.2073 123.008 71.0252 117.26 72.136C114.482 72.6727 111.718 71.1836 111.082 67.8672C110.334 63.9656 113.221 60.5079 115.287 60.1086C116.321 59.9089 117.079 60.3693 117.266 61.3447C117.728 63.7507 115.164 67.146 112.638 68.6456C113.517 70.4315 115.473 71.2 116.829 70.9379C119.994 70.3264 124.141 65.4112 126.056 54.7907C126.563 52.1974 129.282 52.7511 129.346 54.8294ZM112.284 67.5001L112.359 67.8902C114.458 66.608 116.43 62.9225 116.193 61.687C116.106 61.2318 115.862 61.0091 115.345 61.1089C113.989 61.371 111.598 63.9235 112.284 67.5001Z" fill="#151513"/>
<path d="M165.657 60.3562C163.97 59.9404 161.804 57.7288 161.28 54.9977C160.619 51.5512 160.676 44.8639 165.118 34.4969C169.336 24.7125 175.698 16.672 182.48 15.3616C192.878 13.3522 190.077 37.1595 186.528 54.9744C184.217 67.0203 177.863 81.7356 167.4 83.7575C159.068 85.3675 155.401 76.0279 162.207 67.1598C166.098 61.9569 171.447 60.856 173.963 60.7068C179.114 60.3186 180.123 61.742 176.898 61.6908C172.886 61.7243 166.84 63.0275 163.492 67.923C158.283 75.3362 160.458 83.885 166.982 82.6244C173.505 81.3639 180.796 73.2787 184.997 54.3261C191.085 27.0513 188.204 15.8739 182.585 16.9597C177.354 17.9706 170.275 27.1612 167.011 34.9402C163.341 43.742 161.732 51.0665 162.48 54.9681C163.054 57.9594 165.048 58.9229 166.206 59.3735C167.364 59.8241 166.714 60.6241 165.657 60.3562Z" fill="#151513"/>
<path d="M199.309 49.605C198.844 49.6274 199.055 48.9797 199.03 48.8496C198.992 48.6546 198.895 47.7967 198.397 46.9487C197.887 46.0357 197.696 45.7356 197.36 45.7329C197.037 45.7953 195.806 46.7077 194.569 50.386C193.53 53.3517 192.946 55.8924 193.078 57.2829C193.124 58.2183 193.355 58.3759 193.484 58.3509C194.066 58.2386 195.639 56.316 197.984 52.8282C199.275 50.8254 200.346 48.7301 201.158 47.0223C201.199 42.6983 201.164 42.1656 201.874 42.0283C202.262 41.9534 202.595 42.2937 203.043 42.8815C203.567 43.5219 203.501 43.872 203.323 45.39C203.007 48.2834 202.876 52.4898 202.565 58.5518C202.219 66.1719 202.021 70.7284 202.336 75.8603C202.602 80.3945 203.356 81.5302 202.646 81.6675C201.806 81.8297 201.159 80.2014 200.882 75.2646C200.569 69.795 200.604 66.4839 200.918 57.9935C201.057 54.5274 201.087 51.8915 201.152 49.7883C197.617 55.7991 194.303 59.4741 193.528 59.6239C192.817 59.7612 192.074 59.0282 191.943 57.3C191.788 55.4418 192.414 52.421 193.452 49.4553C194.491 46.4896 195.406 44.6268 196.504 44.4147C197.409 44.2399 198.254 45.1556 199.006 46.6289C199.693 48.1146 199.73 48.3097 199.817 48.7649C199.828 49.1675 199.632 49.5426 199.309 49.605Z" fill="#151513"/>
<path d="M233.456 37.679C234.36 37.5042 234.821 38.1571 233.877 38.4744C231.187 39.4663 219.647 44.2587 215.888 47.0083C215.819 47.696 215.581 48.5512 215.331 49.3414C213.623 54.0549 209.989 55.364 208.989 54.3433C208.31 53.5978 209.505 50.3996 214.159 47.0727C214.223 47.0602 214.275 46.9827 214.392 46.8927C214.62 45.6348 214.549 44.5694 214.127 44.1116C213.704 43.6538 212.681 44.2561 211.288 46.0763C210.013 47.8064 208.724 49.4715 207.989 49.4787C206.995 49.5359 207.063 47.0951 207.134 46.0697C207.791 38.3223 208.273 27.9113 209.527 17.6882C210.045 13.4069 210.588 11.3463 211.642 11.9519C212.335 12.4249 212.58 14.4006 211.961 16.4086C211.326 18.6892 211.265 20.1172 211.05 21.44C209.387 33.0235 209.198 38.3203 208.232 45.8576C208.203 46.4027 207.921 48.0757 208.244 48.0133C208.502 47.9634 209.517 46.6208 210.403 45.3032C212.187 42.7329 213.832 41.8757 214.796 42.3638C215.529 42.6941 216.037 43.9448 215.999 45.8404C221.738 42.2363 231.196 38.1158 233.456 37.679ZM213.862 49.0182L213.968 48.5256C211.62 50.598 209.696 52.7905 210.131 53.3134C210.541 53.7062 213.032 51.6739 213.862 49.0182Z" fill="#151513"/>
<path d="M239.121 45.8907C244.094 44.9297 252.586 22.8551 256.114 6.32564C256.168 5.91051 257.127 5.32065 256.887 6.51349C252.655 28.102 244.927 45.7803 239.437 46.8412C235.949 47.5151 237.662 42.1264 237.046 41.706C236.891 41.6009 236.464 41.8183 234.674 43.3107C232.936 44.7256 231.044 46.0353 230.398 46.1601C229.494 46.3349 228.736 45.8744 228.648 45.4192C228.424 44.2487 228.939 42.3958 230.967 40.0482C232.734 38.0882 233.964 37.5134 235.126 37.2888C236.547 37.0142 237.888 39.1154 237.319 39.2928C236.674 39.4176 236.153 38.1019 235.52 38.2918C234.874 38.4166 233.669 39.1214 232.046 40.7839C230.643 42.2013 229.713 44.3367 229.813 44.857C229.838 44.987 229.915 45.0396 230.044 45.0146C230.626 44.9023 231.636 44.2349 233.335 42.9626C235.564 41.3178 237.496 39.8655 237.755 39.8156C238.013 39.7657 238.567 39.8609 238.654 40.3161C238.817 41.1615 237.442 46.2152 239.121 45.8907Z" fill="#151513"/>
<path d="M258.386 58.3531C257.559 58.5803 256.439 56.2341 255.891 51.2822C254.458 39.6226 254.423 29.3114 254.756 19.8733C255.226 5.2158 256.168 1.39231 257.201 1.19262C257.782 1.08029 258.211 2.61599 258.129 3.23867C258.085 4.05644 257.508 5.58427 257.096 7.28221C257.03 7.63231 256.521 14.407 256.404 20.4316C256.306 25.5083 256.021 39.3881 257.218 51.5653C257.849 57.6476 259.02 58.1632 258.386 58.3531Z" fill="#151513"/>
<path d="M38.8404 107.588C38.897 106.835 38.4568 103.144 38.1913 100.363L37.4692 98.3443C35.898 93.9947 29.3602 89.5932 22.2755 87.9275C19.9695 87.429 16.0531 86.5673 12.8847 85.7633C7.85205 99.6839 3.97171 112.977 2.16209 121.352C1.62984 123.815 0.344739 123.052 0.572328 121.794C2.75563 111.526 5.16123 102.766 11.3391 85.3876C10.0121 85.1045 8.87889 84.784 8.31229 84.6238C6.18754 84.0228 6.01596 80.684 13.6124 79.0813L14.8596 75.8056C23.3063 52.7956 34.2317 41.3106 36.0776 41.1562C37.9235 41.0019 39.1169 41.9851 39.1036 44.0108C39.1548 46.0241 38.3475 58.9258 38.241 75.1314C39.1181 75.1643 40.1368 75.2372 41.2054 75.5702C42.7115 76.0884 46.0634 76.4523 38.5778 76.8872L38.2549 76.9496C38.3041 89.0788 38.6298 92.5227 39.4478 99.5804C39.4207 99.788 39.5227 99.9706 39.4955 100.178C40.9522 104.28 40.9353 104.89 41.0328 105.748C41.1554 106.736 40.1278 108.014 39.6632 108.036C39.1986 108.058 38.7714 108.276 38.8404 107.588ZM15.4855 78.7193C23.2236 77.1566 35.6076 75.3705 36.9764 75.1735C37.025 57.9675 38.1009 45.4185 38.0056 44.223C37.9227 43.0926 37.8523 42.0272 36.6647 42.1218C35.4126 42.2289 22.6637 60.2705 16.4302 76.3113L15.4855 78.7193ZM22.5405 86.8648C31.2854 89.1538 35.6757 92.4866 37.7555 95.9961C37.3447 91.7594 36.9963 87.8479 36.9257 77.0041C29.8129 77.6367 20.3956 79.5239 14.7367 80.7523C14.2383 81.995 13.8045 83.2253 13.3707 84.4556L22.5405 86.8648ZM9.00447 83.3436L11.825 84.0799L12.8762 81.1792C8.41736 82.378 8.46281 83.3133 9.00447 83.3436Z" stroke="black" stroke-width="0.5"/>
<path d="M46.7235 60.342C47.0003 45.7219 48.006 41.886 49.0394 41.6863C49.6207 41.574 50.0492 43.1096 50.0323 43.7199C49.9882 44.5376 49.4105 46.0655 48.9994 47.7634C48.9326 48.1135 48.4882 54.8757 48.3712 60.9003C48.122 69.3781 48.3916 77.4186 48.6131 81.0174C51.8206 77.835 53.6402 75.7974 55.0487 75.4578C56.2758 75.2207 56.6046 76.2362 56.8665 77.6017C57.1909 79.2924 57.2114 80.0977 58.374 79.8731C62.7659 79.0244 69.4474 73.3499 74.2616 69.1152C74.9618 68.5752 75.8344 69.2833 74.7841 70.0932C68.4278 75.3677 64.2176 79.9578 58.8693 81.0587C56.9962 81.4206 55.8425 80.2948 55.5307 78.6691C55.3561 77.7587 55.4126 77.006 55.0251 77.0809C54.3792 77.2057 51.3948 79.8055 49.2523 81.9054C48.8105 82.3955 48.3686 82.8855 47.9811 82.9603C47.5935 83.0352 47.1334 82.3823 47.0652 80.9793C46.8335 76.9778 46.5366 69.145 46.7235 60.342Z" stroke="black" stroke-width="0.5"/>
<path d="M94.9053 76.5905C93.226 76.915 93.0433 75.2644 92.9702 70.6927C92.9117 65.8485 92.9286 65.2383 92.5807 65.1706C92.0787 64.9979 90.2547 67.7107 88.9746 70.1161C87.3942 73.0515 86.5501 73.889 85.7501 73.9087C85.0147 73.9159 84.6713 73.173 84.6378 68.4589C84.6622 64.7451 84.3922 62.6393 83.8131 62.414C83.0278 62.1611 82.3129 62.9736 79.8582 69.3824C77.2179 76.569 76.9395 79.6575 75.9061 79.8572C75.3248 79.9695 75.0313 79.4867 74.9858 78.5514C74.8935 74.9276 74.4159 71.041 74.2061 69.5979C74.0212 68.2849 75.7651 67.9479 75.9103 69.4035C76.0035 70.9366 75.9438 74.1177 75.9702 76.0008C76.0281 77.0012 76.9376 74.0605 78.725 69.0619C80.9712 62.9631 82.2095 61.0379 83.6803 61.0234C85.6282 61.0516 85.7 63.8702 85.7482 68.3117L85.7782 71.6104C85.784 72.6883 86.2214 72.8735 86.8615 71.6708C87.1741 71.2058 87.5911 70.5857 87.9309 69.9131C89.7594 66.5251 91.6355 63.7348 92.6689 63.5351C93.3794 63.3978 93.9041 64.0382 94.0413 64.7535C94.1785 65.4688 94.2819 67.4046 94.2098 70.5206C94.1186 74.5845 94.3703 75.5474 94.9516 75.4351C97.9872 74.8485 105.371 68.2964 112.951 61.3693C113.236 61.1118 114.538 61.2648 113.63 62.1148C108.436 67.1647 99.1681 75.7668 94.9053 76.5905Z" stroke="black" stroke-width="0.5"/>
<path d="M129.346 54.8294C129.344 55.167 129.249 57.8154 129.516 60.2589C129.797 62.7673 130.34 64.5507 130.533 64.5132C130.779 64.3983 130.184 62.6924 131.546 59.6644C132.855 56.7138 134.75 55.0665 136.042 54.8168C137.075 54.6172 138.154 55.3528 140.05 55.4585C141.339 55.5465 142.812 55.1945 143.783 54.6696C144.806 54.0673 144.806 54.0673 144.829 54.535C144.879 54.7951 142.21 56.5922 139.847 56.8465C138.001 57.0008 137.258 56.2678 136.612 56.3926C135.255 56.6547 133.415 57.887 132.262 60.605C131.201 63.103 131.379 65.4288 131.293 66.7268C131.361 68.1298 131.332 68.675 131.151 68.7774C130.892 68.8274 130.301 68.537 130.263 68.342C130.084 68.1068 129.868 67.6766 129.35 66.0233C128.642 63.7322 127.834 57.0771 127.756 55.2715C127.725 54.0635 127.134 53.7732 126.931 55.1611C126.234 59.2073 123.008 71.0252 117.26 72.136C114.482 72.6727 111.718 71.1836 111.082 67.8672C110.334 63.9656 113.221 60.5079 115.287 60.1086C116.321 59.9089 117.079 60.3693 117.266 61.3447C117.728 63.7507 115.164 67.146 112.638 68.6456C113.517 70.4315 115.473 71.2 116.829 70.9379C119.994 70.3264 124.141 65.4112 126.056 54.7907C126.563 52.1974 129.282 52.7511 129.346 54.8294ZM112.284 67.5001L112.359 67.8902C114.458 66.608 116.43 62.9225 116.193 61.687C116.106 61.2318 115.862 61.0091 115.345 61.1089C113.989 61.371 111.598 63.9235 112.284 67.5001Z" stroke="black" stroke-width="0.5"/>
<path d="M165.657 60.3562C163.97 59.9404 161.804 57.7288 161.28 54.9977C160.619 51.5512 160.676 44.8639 165.118 34.4969C169.336 24.7125 175.698 16.672 182.48 15.3616C192.878 13.3522 190.077 37.1595 186.528 54.9744C184.217 67.0203 177.863 81.7356 167.4 83.7575C159.068 85.3675 155.401 76.0279 162.207 67.1598C166.098 61.9569 171.447 60.856 173.963 60.7068C179.114 60.3186 180.123 61.742 176.898 61.6908C172.886 61.7243 166.84 63.0275 163.492 67.923C158.283 75.3362 160.458 83.885 166.982 82.6244C173.505 81.3639 180.796 73.2787 184.997 54.3261C191.085 27.0513 188.204 15.8739 182.585 16.9597C177.354 17.9706 170.275 27.1612 167.011 34.9402C163.341 43.742 161.732 51.0665 162.48 54.9681C163.054 57.9594 165.048 58.9229 166.206 59.3735C167.364 59.8241 166.714 60.6241 165.657 60.3562Z" stroke="black" stroke-width="0.5"/>
<path d="M199.309 49.605C198.844 49.6274 199.055 48.9797 199.03 48.8496C198.992 48.6546 198.895 47.7967 198.397 46.9487C197.887 46.0357 197.696 45.7356 197.36 45.7329C197.037 45.7953 195.806 46.7077 194.569 50.386C193.53 53.3517 192.946 55.8924 193.078 57.2829C193.124 58.2183 193.355 58.3759 193.484 58.3509C194.066 58.2386 195.639 56.316 197.984 52.8282C199.275 50.8254 200.346 48.7301 201.158 47.0223C201.199 42.6983 201.164 42.1656 201.874 42.0283C202.262 41.9534 202.595 42.2937 203.043 42.8815C203.567 43.5219 203.501 43.872 203.323 45.39C203.007 48.2834 202.876 52.4898 202.565 58.5518C202.219 66.1719 202.021 70.7284 202.336 75.8603C202.602 80.3945 203.356 81.5302 202.646 81.6675C201.806 81.8297 201.159 80.2014 200.882 75.2646C200.569 69.795 200.604 66.4839 200.918 57.9935C201.057 54.5274 201.087 51.8915 201.152 49.7883C197.617 55.7991 194.303 59.4741 193.528 59.6239C192.817 59.7612 192.074 59.0282 191.943 57.3C191.788 55.4418 192.414 52.421 193.452 49.4553C194.491 46.4896 195.406 44.6268 196.504 44.4147C197.409 44.2399 198.254 45.1556 199.006 46.6289C199.693 48.1146 199.73 48.3097 199.817 48.7649C199.828 49.1675 199.632 49.5426 199.309 49.605Z" stroke="black" stroke-width="0.5"/>
<path d="M233.456 37.679C234.36 37.5042 234.821 38.1571 233.877 38.4744C231.187 39.4663 219.647 44.2587 215.888 47.0083C215.819 47.696 215.581 48.5512 215.331 49.3414C213.623 54.0549 209.989 55.364 208.989 54.3433C208.31 53.5978 209.505 50.3996 214.159 47.0727C214.223 47.0602 214.275 46.9827 214.392 46.8927C214.62 45.6348 214.549 44.5694 214.127 44.1116C213.704 43.6538 212.681 44.2561 211.288 46.0763C210.013 47.8064 208.724 49.4715 207.989 49.4787C206.995 49.5359 207.063 47.0951 207.134 46.0697C207.791 38.3223 208.273 27.9113 209.527 17.6882C210.045 13.4069 210.588 11.3463 211.642 11.9519C212.335 12.4249 212.58 14.4006 211.961 16.4086C211.326 18.6892 211.265 20.1172 211.05 21.44C209.387 33.0235 209.198 38.3203 208.232 45.8576C208.203 46.4027 207.921 48.0757 208.244 48.0133C208.502 47.9634 209.517 46.6208 210.403 45.3032C212.187 42.7329 213.832 41.8757 214.796 42.3638C215.529 42.6941 216.037 43.9448 215.999 45.8404C221.738 42.2363 231.196 38.1158 233.456 37.679ZM213.862 49.0182L213.968 48.5256C211.62 50.598 209.696 52.7905 210.131 53.3134C210.541 53.7062 213.032 51.6739 213.862 49.0182Z" stroke="black" stroke-width="0.5"/>
<path d="M239.121 45.8907C244.094 44.9297 252.586 22.8551 256.114 6.32564C256.168 5.91051 257.127 5.32065 256.887 6.51349C252.655 28.102 244.927 45.7803 239.437 46.8412C235.949 47.5151 237.662 42.1264 237.046 41.706C236.891 41.6009 236.464 41.8183 234.674 43.3107C232.936 44.7256 231.044 46.0353 230.398 46.1601C229.494 46.3349 228.736 45.8744 228.648 45.4192C228.424 44.2487 228.939 42.3958 230.967 40.0482C232.734 38.0882 233.964 37.5134 235.126 37.2888C236.547 37.0142 237.888 39.1154 237.319 39.2928C236.674 39.4176 236.153 38.1019 235.52 38.2918C234.874 38.4166 233.669 39.1214 232.046 40.7839C230.643 42.2013 229.713 44.3367 229.813 44.857C229.838 44.987 229.915 45.0396 230.044 45.0146C230.626 44.9023 231.636 44.2349 233.335 42.9626C235.564 41.3178 237.496 39.8655 237.755 39.8156C238.013 39.7657 238.567 39.8609 238.654 40.3161C238.817 41.1615 237.442 46.2152 239.121 45.8907Z" stroke="black" stroke-width="0.5"/>
<path d="M258.386 58.3531C257.559 58.5803 256.439 56.2341 255.891 51.2822C254.458 39.6226 254.423 29.3114 254.756 19.8733C255.226 5.2158 256.168 1.39231 257.201 1.19262C257.782 1.08029 258.211 2.61599 258.129 3.23867C258.085 4.05644 257.508 5.58427 257.096 7.28221C257.03 7.63231 256.521 14.407 256.404 20.4316C256.306 25.5083 256.021 39.3881 257.218 51.5653C257.849 57.6476 259.02 58.1632 258.386 58.3531Z" stroke="black" stroke-width="0.5"/>
</g>
</svg>
