<svg width="203" height="60" viewBox="0 0 203 60" fill="none" xmlns="http://www.w3.org/2000/svg">
<path d="M31.4151 47.4416L37.1827 59.3133H25.8173L31.4151 47.4416Z" fill="white"/>
<path d="M63 37.9618L58.426 27.5721H45.5474L31.4007 0L24.9562 14.9849L31.1269 27.0085H11.0368V27.07L5.38088 27.0085L0 38.5915H12.7858L8.60903 45.8313L14.6354 60L25.5233 38.5915H37.0723L47.8236 59.5398L53.6449 44.9548L49.913 37.9618H63Z" fill="white"/>
<path d="M107.308 26.437H103.72C102.14 23.0429 100.195 18.8993 99.3732 17.061C98.7556 15.6784 98.1478 14.2913 97.518 12.9149C97.0388 11.8703 96.1994 11.3262 95.077 11.3262C93.9545 11.3262 93.1365 11.8759 92.6543 12.9131C92.3621 13.5393 92.0864 14.1731 91.8033 14.8043C90.5687 17.554 88.2533 22.642 86.5426 26.437H83C83.2549 25.8668 83.5102 25.2971 83.7659 24.7281C85.1347 21.6709 88.2852 14.7383 89.6546 11.6811C90.4217 9.9697 91.6673 8.78502 93.4533 8.26084C96.306 7.42478 99.1851 8.79747 100.438 11.5752C101.963 14.9419 105.158 21.7586 107.308 26.437ZM95.1192 21.2756L97.491 26.437H92.8173L95.1192 21.2756Z" fill="white"/>
<path d="M156.119 50.9486H152.529C150.949 47.5545 149.003 43.4109 148.179 41.5726C147.562 40.1899 146.953 38.8029 146.324 37.4265C145.844 36.3819 145.005 35.8378 143.882 35.8378C142.759 35.8378 141.942 36.3875 141.46 37.4246C141.168 38.0509 140.892 38.6846 140.609 39.3159C139.374 42.0656 137.059 47.1536 135.349 50.9486H131.806C132.061 50.3783 132.316 49.8087 132.572 49.2397C133.94 46.1824 137.09 39.2499 138.46 36.1926C139.228 34.4813 140.473 33.2966 142.259 32.7724C145.112 31.9363 147.991 33.309 149.247 36.0868C150.772 39.4534 153.966 46.2702 156.119 50.9486ZM143.926 45.7871L146.298 50.9486H141.624L143.926 45.7871Z" fill="white"/>
<path d="M126.757 50.895C126.444 50.9461 126.126 50.9717 125.809 50.9716C122.938 50.9745 120.067 50.9745 117.195 50.9716H113.973V40.1102H119.924C121.626 40.1102 123.949 40.1102 125.77 40.1102C126.713 40.1102 127.485 39.5873 127.804 38.7506C127.929 38.4198 127.972 38.0628 127.93 37.7111C127.887 37.3595 127.759 37.0239 127.559 36.734C127.358 36.4441 127.091 36.2088 126.78 36.0488C126.468 35.8888 126.123 35.8091 125.775 35.8166C124.261 35.8321 122.747 35.8166 121.233 35.8166C118.812 35.8166 116.392 35.8166 113.973 35.8166V32.5452C117.915 32.5452 121.856 32.5452 125.798 32.5452C128.291 32.5452 130.444 34.226 131.033 36.6589C131.482 38.5178 131.037 40.1743 129.807 41.6186C129.769 41.6634 129.728 41.7064 129.677 41.763C130.194 42.2973 130.597 42.9346 130.86 43.635C132.05 46.7937 130.039 50.3584 126.757 50.895ZM125.816 43.3897C122.98 43.3897 122.217 43.3897 120.547 43.3897H117.194V47.7002C120.067 47.7002 122.939 47.7002 125.811 47.7002C126.814 47.7002 127.641 47.054 127.879 46.0978C128.227 44.6971 127.238 43.3897 125.816 43.3897Z" fill="white"/>
<path d="M179.255 8.00125V11.3007H165.381V23.16H165.539C167.132 23.16 177.66 23.16 179.252 23.16V26.4557C177.426 26.4663 169.147 26.4557 165.381 26.447C164.716 26.447 164.191 26.447 163.867 26.447C163.71 26.4499 163.553 26.4348 163.399 26.4021C163.046 26.3224 162.73 26.123 162.504 25.8366C162.277 25.5502 162.153 25.194 162.152 24.8265C162.148 24.3384 162.148 23.8491 162.148 23.3598V20.3592C162.148 17.3411 162.148 14.3241 162.148 11.3082V8.00872L179.255 8.00125ZM169.589 15.6092C172.811 15.6092 176.033 15.6092 179.255 15.6092V18.8863H169.588L169.589 15.6092Z" fill="white"/>
<path d="M113.595 15.8477H122.07V19.1546H113.595V26.4544H110.362V8H113.595V15.8477ZM126.293 26.4544V8H129.525V26.4544H126.293Z" fill="white"/>
<path d="M83 50.966V32.5116H86.2326V50.966H83Z" fill="white"/>
<path d="M174.426 47.7126V50.994H157.97V43.9089C157.97 40.9637 157.97 35.4686 157.97 32.524H161.208V47.7138H174.425L174.426 47.7126Z" fill="white"/>
<path d="M155.143 13.7174V13.5306C154.861 13.8058 154.606 14.0542 154.351 14.3038C153.702 14.9384 153.053 15.5719 152.404 16.2044L148.291 20.2353L150.757 22.6476H141.178L143.635 20.2397C141.391 18.0363 139.143 15.8367 136.891 13.6408C136.861 13.6115 136.83 13.5829 136.776 13.5331V13.7043C136.776 17.2229 136.776 22.9116 136.776 26.4302H133.548C133.548 21.6024 133.548 14.602 133.548 9.77547C133.548 9.26001 133.688 8.81179 134.064 8.4557C134.663 7.8867 135.603 7.86615 136.205 8.43142C136.899 9.08445 137.573 9.75866 138.256 10.4235L143.564 15.6036L143.573 15.613C144.333 16.3555 145.094 17.0981 145.855 17.841L145.965 17.9425L146.163 17.752C149.308 14.6808 152.453 11.6097 155.598 8.5385C155.955 8.18925 156.363 8.00311 156.862 8.02054C157.643 8.04793 158.324 8.71716 158.371 9.51463C158.377 9.60116 158.379 9.68707 158.379 9.77423C158.379 14.602 158.379 21.6024 158.379 26.4289H155.147C155.142 22.9178 155.142 17.2322 155.143 13.7174Z" fill="white"/>
<path d="M110.921 52H107.229C107.057 51.5483 106.775 51.1478 106.411 50.8352C105.861 50.3566 105.158 50.1 104.435 50.1143C103.257 50.1143 103.315 50.1143 102.138 50.1143H100.41V50.0801C94.6058 50.0801 89.8996 45.9153 89.8996 40.7776C89.8996 35.6398 94.6058 31.4763 100.41 31.4763C106.214 31.4763 110.92 35.6404 110.92 40.7776C110.92 42.7989 110.189 44.6678 108.952 46.1936C107.982 45.5842 106.89 45.2884 105.691 45.2884H105.289C106.785 44.1785 107.727 42.568 107.727 40.7782C107.727 37.4389 104.445 34.7203 100.41 34.7203C96.3746 34.7203 93.0924 37.4389 93.0924 40.7782C93.0924 44.1175 96.3746 46.8367 100.41 46.8367C101.972 46.8367 103.049 46.8367 104.788 46.8367C105.83 46.8367 106.784 47.0608 107.652 47.5165C107.887 47.6394 108.114 47.7781 108.33 47.9317C108.336 47.9365 108.342 47.9409 108.348 47.9448C108.441 48.0108 108.532 48.0811 108.623 48.1534C108.646 48.172 108.668 48.1888 108.69 48.2081C108.787 48.2878 108.883 48.3694 108.977 48.4571C110.035 49.4333 110.703 50.618 110.921 52Z" fill="white"/>
<path d="M203 26.4208H198.572C196.588 24.2338 193.967 21.3397 193.204 20.5017H186.262V20.6985C186.262 22.0377 186.262 23.3768 186.262 24.7157C186.262 24.72 186.262 24.7244 186.262 24.7294V26.4053H185.009C184.791 26.4557 184.564 26.4557 184.346 26.4053H183.038V23.7806C183.038 22.1621 183.038 20.5435 183.038 18.9249V15.598H186.408V17.1973C187.758 17.1973 189.109 17.1973 190.46 17.1973C192.274 17.1973 194.087 17.1973 195.901 17.1973C196.916 17.1973 197.739 16.7865 198.336 15.9523C198.759 15.3541 198.944 14.6157 198.854 13.8848C198.764 13.1539 198.406 12.4844 197.851 12.0104C197.301 11.5328 196.597 11.2768 195.874 11.2907C194.696 11.2907 193.519 11.2907 192.341 11.2907H190.388C188.506 11.2907 186.624 11.2907 184.742 11.2907H183.08V8.01059H195.876C197.475 8.01059 198.883 8.53787 200.065 9.62918C201.326 10.7946 202.036 12.255 202.086 13.9938C202.154 16.4092 201.139 18.2718 199.152 19.576C198.633 19.9135 198.063 20.1615 197.465 20.31L197.499 20.3262C197.715 20.5646 197.919 20.7931 198.125 21.0216C198.555 21.4959 201.735 25.0195 203 26.4208Z" fill="white"/>
</svg>
