<svg width="488" height="80" viewBox="0 0 488 80" fill="none" xmlns="http://www.w3.org/2000/svg">
<path d="M0.492188 59C1.22135 56.6562 2.30208 53.987 3.73438 50.9922C5.14063 47.9714 7.09375 44.2214 9.59375 39.7422C9.15104 39.7682 7.96615 39.8724 6.03906 40.0547C4.11198 40.2109 2.58854 40.3411 1.46875 40.4453L2.91406 37.3984C4.08594 37.2161 5.34896 37.0729 6.70313 36.9688C8.08333 36.8646 9.67188 36.7865 11.4688 36.7344C17.901 26.4219 24.4375 18.1927 31.0781 12.0469C37.7188 5.90104 43.2526 2.82812 47.6797 2.82812C49.0859 2.82812 50.1536 3.19271 50.8828 3.92187C51.638 4.625 52.0156 5.65365 52.0156 7.00781C52.0156 8.9349 50.4401 15.0026 47.2891 25.2109C44.138 35.3932 41.5859 44.1823 39.6328 51.5781C39.7891 52.4115 39.9062 53.1536 39.9844 53.8047C40.0625 54.4557 40.1016 55.0156 40.1016 55.4844C40.1016 56.7344 39.8672 57.724 39.3984 58.4531C38.9297 59.1823 38.3047 59.5469 37.5234 59.5469C36.7682 59.5469 36.1823 59.2474 35.7656 58.6484C35.349 58.0234 35.1406 57.151 35.1406 56.0312C35.1406 55.3802 35.3099 53.8177 35.6484 51.3438L35.6875 51.0312C33.9688 47.5156 31.2604 44.8333 27.5625 42.9844C23.8906 41.1094 19.2161 40.0547 13.5391 39.8203C11.2995 43.7526 9.41146 47.3724 7.875 50.6797C6.36458 53.987 5.29688 56.7604 4.67188 59H0.492188ZM15.375 36.8516C20.9479 37.3724 25.4531 38.4661 28.8906 40.1328C32.3542 41.7734 35.0234 44.0911 36.8984 47.0859C38.5391 41.6953 40.6615 34.8724 43.2656 26.6172C46.7552 15.5495 48.5 9.41667 48.5 8.21875C48.5 7.51562 48.3307 7.00781 47.9922 6.69531C47.6536 6.35677 47.1328 6.1875 46.4297 6.1875C43.5651 6.1875 39.138 9.05208 33.1484 14.7812C27.1849 20.5104 21.2604 27.8672 15.375 36.8516ZM67.0938 42.9844C71.2083 36.2396 74.5417 29.4297 77.0938 22.5547C79.6458 15.6797 80.974 10.224 81.0781 6.1875C78.4479 9.83333 75.8828 14.9115 73.3828 21.4219C70.9089 27.9323 68.8125 35.1198 67.0938 42.9844ZM83.1875 45.1719V48.375L80.9609 50.0547C72.7839 56.3828 67.8359 59.5469 66.1172 59.5469C64.9453 59.5469 64.0599 59.0781 63.4609 58.1406C62.888 57.2031 62.6016 55.7839 62.6016 53.8828V53.1406C60.362 55.3542 58.3958 56.9818 56.7031 58.0234C55.0104 59.0391 53.487 59.5469 52.1328 59.5469C49.9714 59.5469 48.2786 58.7005 47.0547 57.0078C45.8047 55.2891 45.1797 52.9453 45.1797 49.9766C45.1797 44.4818 47.3411 39.6901 51.6641 35.6016C56.013 31.513 61.2344 29.4688 67.3281 29.4688H67.4844C70.349 20.901 73.2005 14 76.0391 8.76562C78.9036 3.53125 81.1693 0.914062 82.8359 0.914062C83.3568 0.914062 83.7474 1.2526 84.0078 1.92969C84.2943 2.60677 84.4375 3.54427 84.4375 4.74219C84.4375 6.79948 83.9557 9.65104 82.9922 13.2969C82.0286 16.9167 80.6484 21.0312 78.8516 25.6406C76.9766 30.4062 74.9583 34.7943 72.7969 38.8047C70.6615 42.8151 68.4089 46.3958 66.0391 49.5469C65.9349 50.0938 65.8568 50.6276 65.8047 51.1484C65.7526 51.6693 65.7266 52.1771 65.7266 52.6719C65.7266 53.6615 65.8958 54.4688 66.2344 55.0938C66.5729 55.7188 66.9896 56.0312 67.4844 56.0312C68.7083 56.0312 72.9141 53.2057 80.1016 47.5547L83.1875 45.1719ZM63.2656 48.0234C63.474 46.0964 63.8255 43.9609 64.3203 41.6172C64.8411 39.2734 65.6094 36.2396 66.625 32.5156H66.4688C61.8073 32.5156 57.6536 34.2995 54.0078 37.8672C50.362 41.4349 48.5391 45.3542 48.5391 49.625C48.5391 51.6302 48.9427 53.2448 49.75 54.4688C50.5312 55.6667 51.5599 56.2656 52.8359 56.2656C53.9036 56.2656 55.2578 55.6146 56.8984 54.3125C58.5651 53.0104 60.6875 50.9141 63.2656 48.0234ZM103.578 42.9844C107.693 36.2396 111.026 29.4297 113.578 22.5547C116.13 15.6797 117.458 10.224 117.562 6.1875C114.932 9.83333 112.367 14.9115 109.867 21.4219C107.393 27.9323 105.297 35.1198 103.578 42.9844ZM119.672 45.1719V48.375L117.445 50.0547C109.268 56.3828 104.32 59.5469 102.602 59.5469C101.43 59.5469 100.544 59.0781 99.9453 58.1406C99.3724 57.2031 99.0859 55.7839 99.0859 53.8828V53.1406C96.8464 55.3542 94.8802 56.9818 93.1875 58.0234C91.4948 59.0391 89.9714 59.5469 88.6172 59.5469C86.4557 59.5469 84.763 58.7005 83.5391 57.0078C82.2891 55.2891 81.6641 52.9453 81.6641 49.9766C81.6641 44.4818 83.8255 39.6901 88.1484 35.6016C92.4974 31.513 97.7188 29.4687 103.812 29.4687H103.969C106.833 20.901 109.685 14 112.523 8.76562C115.388 3.53125 117.654 0.914062 119.32 0.914062C119.841 0.914062 120.232 1.2526 120.492 1.92969C120.779 2.60677 120.922 3.54427 120.922 4.74219C120.922 6.79948 120.44 9.65104 119.477 13.2969C118.513 16.9167 117.133 21.0312 115.336 25.6406C113.461 30.4062 111.443 34.7943 109.281 38.8047C107.146 42.8151 104.893 46.3958 102.523 49.5469C102.419 50.0937 102.341 50.6276 102.289 51.1484C102.237 51.6693 102.211 52.1771 102.211 52.6719C102.211 53.6615 102.38 54.4687 102.719 55.0937C103.057 55.7187 103.474 56.0312 103.969 56.0312C105.193 56.0312 109.398 53.2057 116.586 47.5547L119.672 45.1719ZM99.75 48.0234C99.9583 46.0964 100.31 43.9609 100.805 41.6172C101.326 39.2734 102.094 36.2396 103.109 32.5156H102.953C98.2917 32.5156 94.138 34.2995 90.4922 37.8672C86.8464 41.4349 85.0234 45.3542 85.0234 49.625C85.0234 51.6302 85.4271 53.2448 86.2344 54.4687C87.0156 55.6667 88.0443 56.2656 89.3203 56.2656C90.388 56.2656 91.7422 55.6146 93.3828 54.3125C95.0495 53.0104 97.1719 50.9141 99.75 48.0234ZM133.5 53.0625C133.396 53.3229 133.305 53.5833 133.227 53.8437C133.148 54.1042 133.109 54.2734 133.109 54.3516C133.109 54.5339 133.148 54.7031 133.227 54.8594C133.331 54.9896 133.448 55.0677 133.578 55.0937C133.995 55.0937 135.401 54.2344 137.797 52.5156C140.193 50.7708 143.37 48.3229 147.328 45.1719V48.375L145.492 49.7812C136.898 56.4479 131.703 59.7812 129.906 59.7812C129.464 59.7812 129.099 59.5729 128.812 59.1562C128.526 58.7396 128.383 58.2057 128.383 57.5547C128.383 57.2682 128.461 56.8776 128.617 56.3828C128.773 55.888 128.995 55.3151 129.281 54.6641L136 39.7031C136.208 39.2344 136.495 38.6094 136.859 37.8281C137.562 36.3437 137.914 35.4583 137.914 35.1719C137.888 34.4948 136.755 34.0651 134.516 33.8828C133.396 33.8047 132.497 33.7266 131.82 33.6484C130.232 36.8255 128.331 39.7031 126.117 42.2812C123.93 44.8594 121.404 47.1771 118.539 49.2344V46.0312C120.753 44.4687 122.784 42.5417 124.633 40.25C126.508 37.9583 128.083 35.4583 129.359 32.75C128.839 32.4375 128.461 32.0859 128.227 31.6953C128.018 31.2786 127.914 30.7578 127.914 30.1328C127.914 29.1172 128.174 28.2969 128.695 27.6719C129.216 27.0208 129.88 26.6953 130.688 26.6953C131.365 26.6953 131.924 26.9297 132.367 27.3984C132.81 27.8672 133.031 28.4531 133.031 29.1562C133.031 29.4948 133.005 29.8073 132.953 30.0937C132.901 30.3802 132.823 30.6797 132.719 30.9922C133.37 30.9922 134.034 30.9792 134.711 30.9531C134.919 30.9271 135.049 30.9141 135.102 30.9141C137.289 30.9141 138.852 31.2135 139.789 31.8125C140.727 32.3854 141.195 33.3359 141.195 34.6641C141.195 35.1328 141.078 35.7187 140.844 36.4219C140.609 37.125 140.062 38.4401 139.203 40.3672L133.5 53.0625ZM173.305 45.1719V48.375C167.419 53.0625 163.161 56.0964 160.531 57.4766C157.901 58.8568 155.466 59.5469 153.227 59.5469C150.622 59.5469 148.617 58.7786 147.211 57.2422C145.779 55.6797 145.062 53.4661 145.062 50.6016C145.062 48.3359 145.596 46.0964 146.664 43.8828C147.706 41.6693 149.255 39.5339 151.312 37.4766C153.604 35.2109 155.909 33.4531 158.227 32.2031C160.57 30.9271 162.693 30.2891 164.594 30.2891C166.208 30.2891 167.458 30.6797 168.344 31.4609C169.255 32.2161 169.711 33.2839 169.711 34.6641C169.711 38.2578 167.862 41.474 164.164 44.3125C160.492 47.125 156.052 48.5312 150.844 48.5312C150.271 48.5312 149.854 48.5312 149.594 48.5312C149.307 48.5052 149.034 48.4792 148.773 48.4531C148.643 48.8698 148.552 49.2604 148.5 49.625C148.448 49.9896 148.422 50.3672 148.422 50.7578C148.422 52.6849 148.865 54.1432 149.75 55.1328C150.635 56.1224 151.938 56.6172 153.656 56.6172C155.609 56.6172 157.823 55.9531 160.297 54.625C162.771 53.2708 167.107 50.1198 173.305 45.1719ZM149.242 45.6406C149.659 45.6927 150.076 45.7318 150.492 45.7578C150.909 45.7839 151.339 45.7969 151.781 45.7969C155.401 45.7969 158.734 44.599 161.781 42.2031C164.828 39.7812 166.352 37.4115 166.352 35.0937C166.352 34.4687 166.13 33.974 165.688 33.6094C165.271 33.2448 164.698 33.0625 163.969 33.0625C161.885 33.0625 159.372 34.2604 156.43 36.6562C153.513 39.0521 151.117 42.0469 149.242 45.6406ZM200.922 45.25V48.5312C196.26 52.151 192.732 54.5469 190.336 55.7187C187.94 56.8646 185.609 57.5026 183.344 57.6328C181.833 58.3359 180.609 58.8307 179.672 59.1172C178.734 59.4036 177.901 59.5469 177.172 59.5469C175.792 59.5469 174.581 59.2474 173.539 58.6484C172.497 58.0234 171.977 57.3203 171.977 56.5391C171.977 56.2266 172.133 56.0052 172.445 55.875C172.732 55.7187 173.214 55.6406 173.891 55.6406C174.229 55.6406 174.906 55.6927 175.922 55.7969C176.938 55.901 177.784 55.9531 178.461 55.9531C178.93 55.9531 179.854 55.875 181.234 55.7187C181.547 55.6927 181.794 55.6667 181.977 55.6406C183.852 53.4531 185.245 50.6797 186.156 47.3203C187.068 43.9609 187.536 39.8073 187.562 34.8594C184.281 38.4792 181.339 41.513 178.734 43.9609C176.13 46.3828 173.93 48.1406 172.133 49.2344V46.0312C175.232 43.6615 178.174 41.0703 180.961 38.2578C183.747 35.4193 186.299 32.4375 188.617 29.3125C189.086 27.099 189.646 25.4974 190.297 24.5078C190.948 23.4922 191.742 22.9844 192.68 22.9844C193.201 22.9844 193.656 23.1927 194.047 23.6094C194.438 24.026 194.633 24.5208 194.633 25.0937C194.633 25.901 194.281 26.8516 193.578 27.9453C192.875 29.0391 191.885 30.1849 190.609 31.3828V34.3516C190.609 39.1693 190.167 43.4792 189.281 47.2812C188.396 51.0573 187.263 53.6354 185.883 55.0156C187.393 54.625 189.151 53.8047 191.156 52.5547C193.188 51.2786 196.443 48.8437 200.922 45.25ZM228.734 45.25V48.5312C224.073 52.151 220.544 54.5469 218.148 55.7187C215.753 56.8646 213.422 57.5026 211.156 57.6328C209.646 58.3359 208.422 58.8307 207.484 59.1172C206.547 59.4036 205.714 59.5469 204.984 59.5469C203.604 59.5469 202.393 59.2474 201.352 58.6484C200.31 58.0234 199.789 57.3203 199.789 56.5391C199.789 56.2266 199.945 56.0052 200.258 55.875C200.544 55.7187 201.026 55.6406 201.703 55.6406C202.042 55.6406 202.719 55.6927 203.734 55.7969C204.75 55.901 205.596 55.9531 206.273 55.9531C206.742 55.9531 207.667 55.875 209.047 55.7187C209.359 55.6927 209.607 55.6667 209.789 55.6406C211.664 53.4531 213.057 50.6797 213.969 47.3203C214.88 43.9609 215.349 39.8073 215.375 34.8594C212.094 38.4792 209.151 41.513 206.547 43.9609C203.943 46.3828 201.742 48.1406 199.945 49.2344V46.0312C203.044 43.6615 205.987 41.0703 208.773 38.2578C211.56 35.4193 214.112 32.4375 216.43 29.3125C216.898 27.099 217.458 25.4974 218.109 24.5078C218.76 23.4922 219.555 22.9844 220.492 22.9844C221.013 22.9844 221.469 23.1927 221.859 23.6094C222.25 24.026 222.445 24.5208 222.445 25.0937C222.445 25.901 222.094 26.8516 221.391 27.9453C220.688 29.0391 219.698 30.1849 218.422 31.3828V34.3516C218.422 39.1693 217.979 43.4792 217.094 47.2812C216.208 51.0573 215.076 53.6354 213.695 55.0156C215.206 54.625 216.964 53.8047 218.969 52.5547C221 51.2786 224.255 48.8437 228.734 45.25ZM269.086 61.0703C271.872 57.6328 275.44 51.2656 279.789 41.9687C284.164 32.6719 288.812 21.474 293.734 8.375L266.703 14.4297C264.307 14.9766 262.523 15.5365 261.352 16.1094C260.206 16.6823 259.633 17.2943 259.633 17.9453C259.633 18.8828 260.531 20.0156 262.328 21.3437C264.125 22.6458 266.482 23.8698 269.398 25.0156L267.25 27.3984C263.76 25.8359 261.078 24.2344 259.203 22.5937C257.354 20.9531 256.43 19.3776 256.43 17.8672C256.43 16.3568 257.185 15.1068 258.695 14.1172C260.206 13.1276 262.706 12.2422 266.195 11.4609L295.727 4.9375C296.221 4.23437 296.729 3.71354 297.25 3.375C297.771 3.01042 298.305 2.82812 298.852 2.82812C299.477 2.82812 299.971 2.98437 300.336 3.29687C300.727 3.60937 300.922 4.01302 300.922 4.50781C300.922 5.3151 300.622 5.99219 300.023 6.53906C299.451 7.08594 298.63 7.47656 297.562 7.71094C292.667 20.862 287.992 32.3594 283.539 42.2031C279.112 52.0208 275.844 58.3099 273.734 61.0703H269.086ZM305.766 48.0234C306.964 45.888 307.875 44 308.5 42.3594C309.125 40.7187 309.438 39.4427 309.438 38.5312C309.438 38.1406 309.307 37.7891 309.047 37.4766C308.812 37.1641 308.539 37.0078 308.227 37.0078C307.497 37.0078 306.755 37.7891 306 39.3516C305.245 40.9141 304.867 42.5807 304.867 44.3516C304.893 44.9766 304.971 45.5885 305.102 46.1875C305.232 46.7604 305.453 47.3724 305.766 48.0234ZM316.82 44.8594V48.0234C314.659 49.7422 312.875 50.9531 311.469 51.6562C310.062 52.3333 308.773 52.6719 307.602 52.6719C307.393 52.6719 307.003 52.6458 306.43 52.5937C306.221 52.5677 306.052 52.5417 305.922 52.5156C303.865 54.8854 301.924 56.6562 300.102 57.8281C298.305 58.974 296.56 59.5469 294.867 59.5469C292.654 59.5469 290.896 58.7135 289.594 57.0469C288.266 55.3542 287.602 53.0755 287.602 50.2109C287.602 46.9036 288.461 43.7135 290.18 40.6406C291.898 37.5677 294.294 34.9115 297.367 32.6719C298.747 31.6823 300.245 30.849 301.859 30.1719C303.474 29.4948 304.646 29.1562 305.375 29.1562C305.688 29.1562 305.948 29.2865 306.156 29.5469C306.365 29.7812 306.469 30.0807 306.469 30.4453C306.469 31.0964 305.661 31.7734 304.047 32.4766C302.432 33.1797 301.091 33.8828 300.023 34.5859C297.393 36.3307 295.219 38.6875 293.5 41.6562C291.807 44.599 290.961 47.4245 290.961 50.1328C290.961 51.9297 291.417 53.4531 292.328 54.7031C293.214 55.9271 294.281 56.5391 295.531 56.5391C296.677 56.5391 297.914 56.0703 299.242 55.1328C300.596 54.1693 302.133 52.6849 303.852 50.6797C303.201 49.612 302.719 48.5703 302.406 47.5547C302.094 46.5391 301.938 45.4974 301.938 44.4297C301.938 41.6953 302.706 39.1953 304.242 36.9297C305.805 34.638 307.38 33.4922 308.969 33.4922C309.932 33.4922 310.727 33.9219 311.352 34.7812C312.003 35.6406 312.328 36.7214 312.328 38.0234C312.328 39.5859 311.924 41.4219 311.117 43.5312C310.336 45.6406 309.242 47.724 307.836 49.7812H307.992C308.878 49.7812 309.945 49.4427 311.195 48.7656C312.471 48.0625 314.346 46.7604 316.82 44.8594Z" fill="#151513"/>
<path d="M343.305 30.6797L340.023 32.6719L339.555 32.5156C341.247 24.1823 344.021 17.151 347.875 11.4219C351.755 5.69271 355.453 2.82812 358.969 2.82812C360.427 2.82812 361.573 3.28385 362.406 4.19531C363.266 5.08073 363.695 6.27865 363.695 7.78906C363.695 8.59635 363.409 9.82031 362.836 11.4609C362.289 13.0755 361.378 15.3542 360.102 18.2969L345.766 50.7969C345.74 50.875 345.661 51.0573 345.531 51.3437C344.75 53.1406 344.359 54.3125 344.359 54.8594C344.359 55.276 344.411 55.5885 344.516 55.7969C344.62 56.0052 344.776 56.1094 344.984 56.1094C346.339 56.1094 350.18 53.2578 356.508 47.5547C362.836 41.8516 369.789 34.7552 377.367 26.2656L382.914 14.7422L386.195 15.0937L365.219 63.3359C363.083 68.2578 361.026 72.1641 359.047 75.0547C357.068 77.9453 355.479 79.3906 354.281 79.3906C353.839 79.3906 353.5 79.2734 353.266 79.0391C353.031 78.8047 352.914 78.4661 352.914 78.0234C352.914 77.763 353.995 76.0312 356.156 72.8281C358.344 69.651 360.245 66.2135 361.859 62.5156L374.359 34.0391C365.583 43.2839 358.852 49.8594 354.164 53.7656C349.477 57.6719 346.013 59.625 343.773 59.625C342.732 59.625 341.938 59.3385 341.391 58.7656C340.844 58.1667 340.57 57.3073 340.57 56.1875C340.57 55.6406 340.701 54.9635 340.961 54.1562C341.221 53.3229 341.794 51.8646 342.68 49.7812L357.133 16.6953C357.289 16.3307 357.51 15.8229 357.797 15.1719C359.438 11.4219 360.258 9.18229 360.258 8.45312C360.258 7.72396 360.062 7.16406 359.672 6.77344C359.281 6.38281 358.708 6.1875 357.953 6.1875C356.052 6.1875 353.526 8.64844 350.375 13.5703C347.25 18.4661 344.893 24.1693 343.305 30.6797ZM396.781 48.0234C397.979 45.888 398.891 44 399.516 42.3594C400.141 40.7187 400.453 39.4427 400.453 38.5312C400.453 38.1406 400.323 37.7891 400.062 37.4766C399.828 37.1641 399.555 37.0078 399.242 37.0078C398.513 37.0078 397.771 37.7891 397.016 39.3516C396.26 40.9141 395.883 42.5807 395.883 44.3516C395.909 44.9766 395.987 45.5885 396.117 46.1875C396.247 46.7604 396.469 47.3724 396.781 48.0234ZM407.836 44.8594V48.0234C405.674 49.7422 403.891 50.9531 402.484 51.6562C401.078 52.3333 399.789 52.6719 398.617 52.6719C398.409 52.6719 398.018 52.6458 397.445 52.5937C397.237 52.5677 397.068 52.5417 396.938 52.5156C394.88 54.8854 392.94 56.6562 391.117 57.8281C389.32 58.974 387.576 59.5469 385.883 59.5469C383.669 59.5469 381.911 58.7135 380.609 57.0469C379.281 55.3542 378.617 53.0755 378.617 50.2109C378.617 46.9036 379.477 43.7135 381.195 40.6406C382.914 37.5677 385.31 34.9115 388.383 32.6719C389.763 31.6823 391.26 30.849 392.875 30.1719C394.49 29.4948 395.661 29.1562 396.391 29.1562C396.703 29.1562 396.964 29.2865 397.172 29.5469C397.38 29.7812 397.484 30.0807 397.484 30.4453C397.484 31.0964 396.677 31.7734 395.062 32.4766C393.448 33.1797 392.107 33.8828 391.039 34.5859C388.409 36.3307 386.234 38.6875 384.516 41.6562C382.823 44.599 381.977 47.4245 381.977 50.1328C381.977 51.9297 382.432 53.4531 383.344 54.7031C384.229 55.9271 385.297 56.5391 386.547 56.5391C387.693 56.5391 388.93 56.0703 390.258 55.1328C391.612 54.1693 393.148 52.6849 394.867 50.6797C394.216 49.612 393.734 48.5703 393.422 47.5547C393.109 46.5391 392.953 45.4974 392.953 44.4297C392.953 41.6953 393.721 39.1953 395.258 36.9297C396.82 34.638 398.396 33.4922 399.984 33.4922C400.948 33.4922 401.742 33.9219 402.367 34.7812C403.018 35.6406 403.344 36.7214 403.344 38.0234C403.344 39.5859 402.94 41.4219 402.133 43.5312C401.352 45.6406 400.258 47.724 398.852 49.7812H399.008C399.893 49.7812 400.961 49.4427 402.211 48.7656C403.487 48.0625 405.362 46.7604 407.836 44.8594ZM429.633 53.0234C429.503 53.3099 429.398 53.5573 429.32 53.7656C429.268 53.9479 429.242 54.0911 429.242 54.1953C429.242 54.3776 429.281 54.5469 429.359 54.7031C429.464 54.8333 429.581 54.9115 429.711 54.9375C430.102 54.9375 431.417 54.1302 433.656 52.5156C435.922 50.901 439.19 48.4271 443.461 45.0937V48.2969C437.992 52.5937 433.995 55.5625 431.469 57.2031C428.943 58.8177 427.133 59.625 426.039 59.625C425.596 59.625 425.232 59.4167 424.945 59C424.659 58.5833 424.516 58.0495 424.516 57.3984C424.516 57.112 424.594 56.7083 424.75 56.1875C424.906 55.6667 425.128 55.1068 425.414 54.5078L432.602 39.0781C426.612 45.3542 421.378 50.3411 416.898 54.0391C412.419 57.7109 409.411 59.5469 407.875 59.5469C407.302 59.5469 406.872 59.3646 406.586 59C406.273 58.6354 406.117 58.0755 406.117 57.3203C406.117 56.9297 406.195 56.487 406.352 55.9922C406.482 55.4714 406.677 54.9505 406.938 54.4297L411.703 45.0156C410.818 45.8229 409.932 46.5781 409.047 47.2812C408.135 47.9844 407.237 48.6094 406.352 49.1562V45.9531C408.435 44.4427 410.271 42.9062 411.859 41.3437C413.448 39.7812 414.385 38.6745 414.672 38.0234L418.188 30.8359H421.625L411.703 51.6562C411.573 51.9687 411.469 52.2422 411.391 52.4766C411.339 52.6849 411.312 52.8542 411.312 52.9844C411.312 53.375 411.365 53.6615 411.469 53.8437C411.573 54.026 411.703 54.1172 411.859 54.1172C412.849 54.1172 415.857 51.8255 420.883 47.2422C425.909 42.6589 431.091 37.1901 436.43 30.8359H439.867L429.633 53.0234ZM447.172 59.5469C446.625 59.5469 446.195 59.3776 445.883 59.0391C445.57 58.7266 445.414 58.2839 445.414 57.7109C445.414 56.5911 445.779 55.5885 446.508 54.7031C447.237 53.7917 448.044 53.3359 448.93 53.3359C449.503 53.3359 449.932 53.4922 450.219 53.8047C450.531 54.1172 450.688 54.5729 450.688 55.1719C450.688 56.2396 450.31 57.2422 449.555 58.1797C448.799 59.0911 448.005 59.5469 447.172 59.5469ZM465.375 59.5469C464.828 59.5469 464.398 59.3776 464.086 59.0391C463.773 58.7266 463.617 58.2839 463.617 57.7109C463.617 56.5911 463.982 55.5885 464.711 54.7031C465.44 53.7917 466.247 53.3359 467.133 53.3359C467.706 53.3359 468.135 53.4922 468.422 53.8047C468.734 54.1172 468.891 54.5729 468.891 55.1719C468.891 56.2396 468.513 57.2422 467.758 58.1797C467.003 59.0911 466.208 59.5469 465.375 59.5469ZM483.578 59.5469C483.031 59.5469 482.602 59.3776 482.289 59.0391C481.977 58.7266 481.82 58.2839 481.82 57.7109C481.82 56.5911 482.185 55.5885 482.914 54.7031C483.643 53.7917 484.451 53.3359 485.336 53.3359C485.909 53.3359 486.339 53.4922 486.625 53.8047C486.938 54.1172 487.094 54.5729 487.094 55.1719C487.094 56.2396 486.716 57.2422 485.961 58.1797C485.206 59.0911 484.411 59.5469 483.578 59.5469Z" fill="#FFB837"/>
</svg>
