<svg width="84" height="79" viewBox="0 0 84 79" fill="none" xmlns="http://www.w3.org/2000/svg">
<g opacity="0.75" filter="url(#filter0_f_53_9)">
<path d="M37.2374 60.1357C37.7805 59.5173 38.7963 59.783 38.9671 60.5881L41.7285 73.6079C41.8834 74.3382 41.2125 74.9746 40.4915 74.7814L29.0003 71.7023C28.2843 71.5105 28.0186 70.6335 28.5078 70.0765L37.2374 60.1357Z" fill="#FFB837"/>
<path d="M80.7957 57.4793C81.5005 57.6681 82.1638 57.063 82.0401 56.3438L79.9477 44.1795C79.8816 43.795 79.5979 43.484 79.221 43.3831L63.8491 39.2642C63.4935 39.1689 63.219 38.8859 63.1345 38.5276L54.6097 2.34839C54.4196 1.54147 53.3866 1.30303 52.862 1.94498L41.2358 16.1728C41.039 16.4137 40.9655 16.7323 41.0369 17.035L44.522 31.8182C44.6955 32.5544 44.0205 33.2093 43.2898 33.0135L19.0986 26.5315C19.0778 26.5259 19.0565 26.5383 19.0509 26.559V26.559C19.0453 26.5799 19.0237 26.5923 19.0029 26.5864L12.3943 24.7419C12.0221 24.638 11.6234 24.7579 11.3702 25.0497L2.09932 35.7331C1.61516 36.2911 1.88224 37.1633 2.59577 37.3545L15.7873 40.8891C16.5395 41.0907 16.7828 42.0367 16.2213 42.5762L10.1211 48.4366C9.88507 48.6633 9.77495 48.9912 9.82624 49.3145L12.5141 66.2525C12.6446 67.0749 13.6642 67.3869 14.2326 66.7784L33.4761 46.1773C33.7283 45.9073 34.1088 45.7984 34.4657 45.894L48.1657 49.5649C48.5213 49.6602 48.7958 49.9431 48.8802 50.3014L55.1998 77.107C55.393 77.9261 56.4499 78.1549 56.9645 77.4889L67.6715 63.6313C67.8594 63.3882 67.925 63.0722 67.8496 62.7744L65.8876 55.0251C65.7001 54.2848 66.3782 53.6161 67.1158 53.8138L80.7957 57.4793Z" fill="#FFB837"/>
</g>
<defs>
<filter id="filter0_f_53_9" x="0.853882" y="0.577148" width="82.2012" height="78.3008" filterUnits="userSpaceOnUse" color-interpolation-filters="sRGB">
<feFlood flood-opacity="0" result="BackgroundImageFix"/>
<feBlend mode="normal" in="SourceGraphic" in2="BackgroundImageFix" result="shape"/>
<feGaussianBlur stdDeviation="0.5" result="effect1_foregroundBlur_53_9"/>
</filter>
</defs>
</svg>
