<svg width="210" height="298" viewBox="0 0 210 298" fill="none" xmlns="http://www.w3.org/2000/svg">
<g opacity="0.75" filter="url(#filter0_f_55_100)">
<path d="M119.467 179.277C120.246 179.013 120.993 179.751 120.739 180.533L103.097 234.747C102.866 235.457 101.967 235.673 101.439 235.145L65.4053 199.111C64.8811 198.587 65.0895 197.695 65.7916 197.457L119.467 179.277Z" fill="#FFB837" fill-opacity="0.55"/>
<path d="M257.27 253.525C257.786 254.041 258.663 253.848 258.915 253.163L276.172 206.364C276.307 205.998 276.216 205.587 275.941 205.311L233.389 162.759C233.128 162.499 233.032 162.116 233.138 161.764L273.427 27.8259C273.666 27.0321 272.89 26.3091 272.115 26.6027L204.508 52.2118C204.217 52.3219 203.994 52.5612 203.905 52.859L186.635 110.294C186.418 111.018 185.505 111.248 184.971 110.713L118.507 44.2495C118.453 44.1951 118.365 44.1951 118.31 44.2495V44.2495C118.255 44.3043 118.166 44.3038 118.112 44.2484L99.7794 25.5309C99.5091 25.2548 99.1039 25.1592 98.7386 25.2853L45.4202 43.6955C44.722 43.9366 44.5172 44.8255 45.0395 45.3479L85.7698 86.0781C86.3204 86.6288 86.0582 87.5697 85.3021 87.7562L50.143 96.4256C49.8252 96.5039 49.5659 96.7328 49.4487 97.0384L25.0844 160.566C24.7863 161.343 25.5132 162.123 26.3097 161.881L129.4 130.458C129.754 130.35 130.138 130.446 130.399 130.708L168.496 168.804C168.756 169.065 168.852 169.447 168.746 169.799L138.349 270.899C138.107 271.705 138.908 272.432 139.686 272.112L203.87 245.777C204.154 245.661 204.369 245.42 204.452 245.124L213.781 212.14C213.989 211.405 214.91 211.165 215.45 211.705L257.27 253.525Z" fill="#FFB837" fill-opacity="0.55"/>
</g>
<defs>
<filter id="filter0_f_55_100" x="0.0161133" y="0.230469" width="301.217" height="296.958" filterUnits="userSpaceOnUse" color-interpolation-filters="sRGB">
<feFlood flood-opacity="0" result="BackgroundImageFix"/>
<feBlend mode="normal" in="SourceGraphic" in2="BackgroundImageFix" result="shape"/>
<feGaussianBlur stdDeviation="12.5" result="effect1_foregroundBlur_55_100"/>
</filter>
</defs>
</svg>
