<svg width="50" height="50" viewBox="0 0 50 50" fill="none" xmlns="http://www.w3.org/2000/svg">
<path fill-rule="evenodd" clip-rule="evenodd" d="M14.8536 1H35.1473C42.7681 1 49 7.20831 49 14.7927V35.2073C49 42.7935 42.7681 49 35.1473 49H14.8536C7.2328 49 1 42.7935 1 35.2073V14.7927C1 7.20831 7.23273 1 14.8536 1ZM24.8707 12.0406C32.2763 12.0406 38.2858 18.1023 38.2858 25.5723C38.2858 33.0432 32.2763 39.104 24.8707 39.104C17.4633 39.104 11.4547 33.0432 11.4547 25.5723C11.4547 18.1023 17.4633 12.0406 24.8707 12.0406ZM24.8707 16.611C29.7747 16.611 33.7548 20.6248 33.7548 25.5723C33.7548 30.5198 29.7747 34.5345 24.8707 34.5345C19.965 34.5345 15.9858 30.5199 15.9858 25.5723C15.9858 20.6248 19.965 16.611 24.8707 16.611ZM37.8491 10.1651C39.0521 10.1651 40.0274 11.1489 40.0274 12.3614C40.0274 13.5749 39.0521 14.5587 37.8491 14.5587C36.647 14.5587 35.6717 13.5749 35.6717 12.3614C35.6717 11.1489 36.647 10.1651 37.8491 10.1651ZM16.5119 4.92089H33.4907C39.8661 4.92089 45.0802 10.1544 45.0802 16.5495V33.7617C45.0802 40.1567 39.8662 45.3894 33.4907 45.3894H16.5119C10.1365 45.3894 4.9216 40.1567 4.9216 33.7616V16.5494C4.9216 10.1543 10.1365 4.92089 16.5119 4.92089Z" fill="#FFB837" stroke="#FFB837"/>
</svg>
