<svg width="25" height="30" viewBox="0 0 25 30" fill="none" xmlns="http://www.w3.org/2000/svg">
<path d="M10.2682 21.2021C10.2682 20.6498 10.7159 20.2021 11.2682 20.2021H13.7101C14.2624 20.2021 14.7101 20.6498 14.7101 21.2021V29C14.7101 29.5523 14.2624 30 13.7101 30H11.2682C10.7159 30 10.2682 29.5523 10.2682 29V21.2021ZM0 11.1594C0 10.6071 0.447715 10.1594 1 10.1594H7.55803L2.94165 5.86016C2.52792 5.47485 2.51563 4.82344 2.91454 4.42279L4.4495 2.88115C4.84036 2.4886 5.47585 2.48858 5.86673 2.88111L10.2803 7.31332V1C10.2803 0.447715 10.7281 0 11.2803 0H13.7219C14.2742 0 14.7219 0.447715 14.7219 1V7.31332L19.1366 2.8901C19.5272 2.49876 20.1612 2.49864 20.5519 2.88983L22.0824 4.4221C22.4826 4.82282 22.4705 5.47562 22.0557 5.86122L17.4444 10.1477H24C24.5523 10.1477 25 10.5954 25 11.1477V13.2768C25 13.829 24.5523 14.2768 24 14.2768H17.4012L22.0574 18.6965C22.4677 19.086 22.4735 19.7379 22.0703 20.1346L20.5447 21.6358C20.1558 22.0184 19.5321 22.0188 19.1428 21.6366L12.5011 15.1166L5.85692 21.6391C5.46863 22.0202 4.84682 22.021 4.45759 21.6408L2.92799 20.1465C2.52229 19.7502 2.52704 19.0962 2.93846 18.7058L7.59377 14.2885H1C0.447715 14.2885 0 13.8408 0 13.2885V11.1594Z" fill="#FFB837"/>
</svg>
